HIERARCHY
ROOT Hips
{
	OFFSET 0.000000 83.214638 0.000000
	CHANNELS 6 Xposition Yposition Zposition Xrotation Yrotation Zrotation
	JOINT Pelvis
	{
		OFFSET 0.000000 0.000000 0.000000
		CHANNELS 3 Xrotation Yrotation Zrotation
		JOINT LeftUpLeg
		{
			OFFSET 8.479700 -4.795502 -0.379100
			CHANNELS 3 Xrotation Yrotation Zrotation
			JOINT LeftLeg
			{
				OFFSET 0.024144 -32.555107 0.112900
				CHANNELS 3 Xrotation Yrotation Zrotation
				JOINT LeftFoot
				{
					OFFSET -0.024144 -32.638630 -3.012600
					CHANNELS 3 Xrotation Yrotation Zrotation
					JOINT LeftToeBase
					{
						OFFSET 0.970200 -13.225400 11.864200
						CHANNELS 3 Xrotation Yrotation Zrotation
						End Site
						{
							OFFSET 0.000000 12.319262 0.000000
						}
					}
					JOINT LFootTongue
					{
						OFFSET 1.142400 -1.059800 6.665200
						CHANNELS 3 Xrotation Yrotation Zrotation
						End Site
						{
							OFFSET 0.000000 12.319262 0.000000
						}
					}
				}
				JOINT LeftPantLeg
				{
					OFFSET 0.918482 -16.533964 -2.284700
					CHANNELS 3 Xrotation Yrotation Zrotation
					End Site
					{
						OFFSET 0.350399 24.744368 0.000000
					}
				}
			}
		}
		JOINT RightUpLeg
		{
			OFFSET -8.479700 -4.795502 -0.379100
			CHANNELS 3 Xrotation Yrotation Zrotation
			JOINT RightLeg
			{
				OFFSET -0.023144 -32.555092 0.112900
				CHANNELS 3 Xrotation Yrotation Zrotation
				JOINT RightFoot
				{
					OFFSET 0.023144 -32.638641 -3.012700
					CHANNELS 3 Xrotation Yrotation Zrotation
					JOINT RightToeBase
					{
						OFFSET -0.970200 -13.225400 11.864200
						CHANNELS 3 Xrotation Yrotation Zrotation
						End Site
						{
							OFFSET 0.000000 12.319244 0.000000
						}
					}
					JOINT RFootTongue
					{
						OFFSET -1.142200 -1.059800 6.665200
						CHANNELS 3 Xrotation Yrotation Zrotation
						End Site
						{
							OFFSET 0.000000 12.319243 0.000000
						}
					}
				}
				JOINT RightPantLeg
				{
					OFFSET -0.919482 -16.533978 -2.284800
					CHANNELS 3 Xrotation Yrotation Zrotation
					End Site
					{
						OFFSET -0.350400 24.744419 0.000000
					}
				}
			}
		}
	}
	JOINT Spine
	{
		OFFSET 0.000000 7.722000 1.166200
		CHANNELS 3 Xrotation Yrotation Zrotation
		JOINT Spine1
		{
			OFFSET 0.000000 12.024101 0.248800
			CHANNELS 3 Xrotation Yrotation Zrotation
			JOINT Spine2
			{
				OFFSET 0.000000 11.502998 -0.491200
				CHANNELS 3 Xrotation Yrotation Zrotation
				JOINT Neck
				{
					OFFSET 0.000000 18.430702 -3.123100
					CHANNELS 3 Xrotation Yrotation Zrotation
					JOINT Head
					{
						OFFSET 0.000000 9.051102 1.034000
						CHANNELS 3 Xrotation Yrotation Zrotation
						JOINT HairB
						{
							OFFSET 0.208400 24.786102 24.822300
							CHANNELS 3 Xrotation Yrotation Zrotation
							End Site
							{
								OFFSET 0.000000 32.263779 0.000000
							}
						}
						JOINT HairA
						{
							OFFSET -7.081100 24.428299 23.196600
							CHANNELS 3 Xrotation Yrotation Zrotation
							End Site
							{
								OFFSET 0.000000 32.263779 0.000000
							}
						}
						JOINT Hat
						{
							OFFSET 16.728800 15.048294 -15.439601
							CHANNELS 3 Xrotation Yrotation Zrotation
							End Site
							{
								OFFSET 0.000000 32.263779 0.000000
							}
						}
					}
				}
				JOINT LeftShoulder
				{
					OFFSET 6.197800 13.665199 -4.064700
					CHANNELS 3 Xrotation Yrotation Zrotation
					JOINT LeftArm
					{
						OFFSET 7.778100 -0.187103 -1.709300
						CHANNELS 3 Xrotation Yrotation Zrotation
						JOINT LeftForeArm
						{
							OFFSET 22.049376 0.000000 0.000000
							CHANNELS 3 Xrotation Yrotation Zrotation
							JOINT LeftHand
							{
								OFFSET 23.009392 0.000000 0.000000
								CHANNELS 3 Xrotation Yrotation Zrotation
								JOINT LeftHandThumb1
								{
									OFFSET 3.507191 -2.063065 3.133727
									CHANNELS 3 Xrotation Yrotation Zrotation
									JOINT LeftHandThumb2
									{
										OFFSET 3.101337 -1.790558 1.790558
										CHANNELS 3 Xrotation Yrotation Zrotation
										JOINT LeftHandThumb3
										{
											OFFSET 3.058640 -1.765907 1.765906
											CHANNELS 3 Xrotation Yrotation Zrotation
											End Site
											{
												OFFSET -0.415260 3.926476 -0.049563
											}
										}
									}
								}
								JOINT LeftHandIndex1
								{
									OFFSET 11.334419 -0.901459 3.706815
									CHANNELS 3 Xrotation Yrotation Zrotation
									JOINT LeftHandIndex2
									{
										OFFSET 3.283112 0.000000 0.000000
										CHANNELS 3 Xrotation Yrotation Zrotation
										JOINT LeftHandIndex3
										{
											OFFSET 3.323853 0.000000 0.000000
											CHANNELS 3 Xrotation Yrotation Zrotation
											End Site
											{
												OFFSET -1.135597 3.097809 0.402452
											}
										}
									}
								}
								JOINT LeftHandMiddle1
								{
									OFFSET 11.335861 0.000000 0.000000
									CHANNELS 3 Xrotation Yrotation Zrotation
									JOINT LeftHandMiddle2
									{
										OFFSET 3.410492 0.000000 0.000000
										CHANNELS 3 Xrotation Yrotation Zrotation
										JOINT LeftHandMiddle3
										{
											OFFSET 3.312172 0.000000 0.000000
											CHANNELS 3 Xrotation Yrotation Zrotation
											End Site
											{
												OFFSET -1.150200 3.080154 0.400270
											}
										}
									}
								}
								JOINT LeftHandRing1
								{
									OFFSET 11.514786 -0.013176 -3.003090
									CHANNELS 3 Xrotation Yrotation Zrotation
									JOINT LeftHandRing2
									{
										OFFSET 3.053307 0.000000 0.000000
										CHANNELS 3 Xrotation Yrotation Zrotation
										JOINT LeftHandRing3
										{
											OFFSET 3.295807 0.000000 0.000000
											CHANNELS 3 Xrotation Yrotation Zrotation
											End Site
											{
												OFFSET -1.281006 3.013344 0.375733
											}
										}
									}
								}
								JOINT LeftHandPinky1
								{
									OFFSET 10.518692 -0.960396 -5.730441
									CHANNELS 3 Xrotation Yrotation Zrotation
									JOINT LeftHandPinky2
									{
										OFFSET 2.861649 0.000000 0.000000
										CHANNELS 3 Xrotation Yrotation Zrotation
										JOINT LeftHandPinky3
										{
											OFFSET 2.863380 0.000000 0.000000
											CHANNELS 3 Xrotation Yrotation Zrotation
											End Site
											{
												OFFSET -0.843597 2.711159 0.369971
											}
										}
									}
								}
							}
							JOINT LSleeve
							{
								OFFSET 6.676277 -0.344902 -1.011730
								CHANNELS 3 Xrotation Yrotation Zrotation
								End Site
								{
									OFFSET 0.000000 14.885353 0.000000
								}
							}
						}
					}
				}
				JOINT RightShoulder
				{
					OFFSET -6.197800 13.665199 -4.064700
					CHANNELS 3 Xrotation Yrotation Zrotation
					JOINT RightArm
					{
						OFFSET -7.778100 -0.187103 -1.709300
						CHANNELS 3 Xrotation Yrotation Zrotation
						JOINT RightForeArm
						{
							OFFSET -22.049376 0.000000 0.000000
							CHANNELS 3 Xrotation Yrotation Zrotation
							JOINT RightHand
							{
								OFFSET -23.009392 0.000000 0.000000
								CHANNELS 3 Xrotation Yrotation Zrotation
								JOINT RightHandThumb1
								{
									OFFSET -3.507191 -2.063065 3.133727
									CHANNELS 3 Xrotation Yrotation Zrotation
									JOINT RightHandThumb2
									{
										OFFSET -3.101337 -1.790558 1.790558
										CHANNELS 3 Xrotation Yrotation Zrotation
										JOINT RightHandThumb3
										{
											OFFSET -3.058640 -1.765907 1.765906
											CHANNELS 3 Xrotation Yrotation Zrotation
											End Site
											{
												OFFSET 0.415260 3.926476 -0.049563
											}
										}
									}
								}
								JOINT RightHandIndex1
								{
									OFFSET -11.334419 -0.901459 3.706815
									CHANNELS 3 Xrotation Yrotation Zrotation
									JOINT RightHandIndex2
									{
										OFFSET -3.283112 0.000000 0.000000
										CHANNELS 3 Xrotation Yrotation Zrotation
										JOINT RightHandIndex3
										{
											OFFSET -3.323853 0.000000 0.000000
											CHANNELS 3 Xrotation Yrotation Zrotation
											End Site
											{
												OFFSET 1.135597 3.097809 0.402452
											}
										}
									}
								}
								JOINT RightHandMiddle1
								{
									OFFSET -11.335861 0.000000 0.000000
									CHANNELS 3 Xrotation Yrotation Zrotation
									JOINT RightHandMiddle2
									{
										OFFSET -3.410492 0.000000 0.000000
										CHANNELS 3 Xrotation Yrotation Zrotation
										JOINT RightHandMiddle3
										{
											OFFSET -3.312172 0.000000 0.000000
											CHANNELS 3 Xrotation Yrotation Zrotation
											End Site
											{
												OFFSET 1.150200 3.080154 0.400270
											}
										}
									}
								}
								JOINT RightHandRing1
								{
									OFFSET -11.514786 -0.013176 -3.003090
									CHANNELS 3 Xrotation Yrotation Zrotation
									JOINT RightHandRing2
									{
										OFFSET -3.053307 0.000000 0.000000
										CHANNELS 3 Xrotation Yrotation Zrotation
										JOINT RightHandRing3
										{
											OFFSET -3.295807 0.000000 0.000000
											CHANNELS 3 Xrotation Yrotation Zrotation
											End Site
											{
												OFFSET 1.281006 3.013344 0.375733
											}
										}
									}
								}
								JOINT RightHandPinky1
								{
									OFFSET -10.518692 -0.960396 -5.730441
									CHANNELS 3 Xrotation Yrotation Zrotation
									JOINT RightHandPinky2
									{
										OFFSET -2.861649 0.000000 0.000000
										CHANNELS 3 Xrotation Yrotation Zrotation
										JOINT RightHandPinky3
										{
											OFFSET -2.863380 0.000000 0.000000
											CHANNELS 3 Xrotation Yrotation Zrotation
											End Site
											{
												OFFSET 0.843597 2.711159 0.369971
											}
										}
									}
								}
							}
							JOINT RSleeve
							{
								OFFSET -6.676277 -0.344902 -1.011730
								CHANNELS 3 Xrotation Yrotation Zrotation
								End Site
								{
									OFFSET 0.000000 14.885353 0.000000
								}
							}
						}
					}
				}
				JOINT Backpack
				{
					OFFSET 0.000000 -2.471497 36.677502
					CHANNELS 3 Xrotation Yrotation Zrotation
					End Site
					{
						OFFSET 0.000000 20.427315 0.000000
					}
				}
				JOINT Hood
				{
					OFFSET 0.000000 18.754097 -10.431000
					CHANNELS 3 Xrotation Yrotation Zrotation
					JOINT Hood1
					{
						OFFSET 0.000000 -5.011002 -7.685901
						CHANNELS 3 Xrotation Yrotation Zrotation
						End Site
						{
							OFFSET 0.000000 9.175140 0.000000
						}
					}
				}
				JOINT LHoodieString
				{
					OFFSET 5.250500 16.397697 3.089900
					CHANNELS 3 Xrotation Yrotation Zrotation
					JOINT LHoodieString1
					{
						OFFSET 0.257700 -6.364304 3.694600
						CHANNELS 3 Xrotation Yrotation Zrotation
						JOINT LHoodieString2
						{
							OFFSET 0.000000 -9.643799 2.679100
							CHANNELS 3 Xrotation Yrotation Zrotation
							End Site
							{
								OFFSET 0.000000 10.009018 0.000000
							}
						}
					}
				}
				JOINT RHoodieString
				{
					OFFSET -5.250500 16.397697 3.089900
					CHANNELS 3 Xrotation Yrotation Zrotation
					JOINT RHoodieString1
					{
						OFFSET -0.257700 -6.364304 3.694600
						CHANNELS 3 Xrotation Yrotation Zrotation
						JOINT RHoodieString2
						{
							OFFSET 0.000000 -9.643799 2.679100
							CHANNELS 3 Xrotation Yrotation Zrotation
							End Site
							{
								OFFSET 0.000000 10.009018 0.000000
							}
						}
					}
				}
			}
			JOINT LBackpack_Strap
			{
				OFFSET 15.223200 -7.719803 -6.610900
				CHANNELS 3 Xrotation Yrotation Zrotation
				End Site
				{
					OFFSET 0.000000 16.040596 0.000000
				}
			}
			JOINT RBackpack_Strap
			{
				OFFSET -15.223000 -7.719803 -6.610900
				CHANNELS 3 Xrotation Yrotation Zrotation
				End Site
				{
					OFFSET 0.000000 16.040596 0.000000
				}
			}
		}
	}
	JOINT BoyFacialAnim_Joint
	{
		OFFSET 1.000000 -82.208099 -1.550900
		CHANNELS 3 Xrotation Yrotation Zrotation
		End Site
		{
			OFFSET 0.000000 30.012791 0.000000
		}
	}
}
MOTION
Frames: 4
Frame Time: 0.016667
-0.258333 77.263023 0.131954 -6.087189 -43.034969 -4.015852 -0.000000 0.000002 0.000000 -27.324976 5.711070 13.933703 33.960110 -14.110939 -0.201468 -4.092881 0.706245 -8.143559 -0.000000 -0.000000 0.000000 -0.000000 -0.000000 0.000000 -0.000000 -0.000001 0.000001 -4.368539 -13.685382 -15.656815 32.702481 -9.020059 -0.425647 -20.500907 -4.052734 17.150742 -0.000000 0.000001 0.000000 -0.000000 0.000001 0.000000 -0.000001 0.000001 0.000000 5.833957 4.645113 -1.245102 11.836539 9.037612 -3.083968 11.836549 9.037612 -3.083968 -4.303054 -1.272944 0.206308 -6.271936 20.437797 -0.377165 0.000000 0.000000 0.000000 0.000000 0.000000 0.000000 0.000000 0.000000 0.000000 1.392461 -0.696059 -7.877846 -14.260089 2.394341 -63.277092 9.865066 -47.524931 5.927927 16.172828 0.915199 18.795419 9.163603 4.814109 -5.499023 -0.335356 0.032542 0.783676 0.000002 -0.000002 -0.000003 -0.902011 -6.980966 -3.808420 0.033400 0.804264 -16.418967 -0.000000 0.000001 -0.000005 1.947842 9.683091 -14.539798 -0.456430 -1.565433 -21.881027 -0.000000 -0.000001 0.000002 2.605887 14.896822 -31.345265 -0.576867 -2.712403 -32.011546 -0.000001 -0.000000 -0.000002 4.170594 18.495012 -34.987309 -0.706809 -5.788615 -39.372950 -0.000004 0.000002 0.000000 -0.000001 0.000002 -0.000001 1.410917 9.461497 9.792738 1.220044 -24.270693 60.532920 -6.660699 41.858408 8.043843 6.225261 12.322340 11.673311 -8.895853 -4.903144 -0.383702 7.904837 -19.192471 -2.856846 0.000001 0.000000 -0.000001 -1.085508 -1.215500 4.525253 0.142134 -1.115549 16.942617 -0.000001 -0.000001 -0.000000 -0.663642 -2.903907 12.731594 -0.660569 1.813462 30.579010 0.000000 -0.000000 -0.000002 2.423631 -7.404559 21.763262 -0.989711 3.764316 37.431165 -0.000001 -0.000000 0.000000 3.481033 -10.055074 24.322751 -1.458322 7.872003 41.091962 0.000000 -0.000001 0.000002 0.000000 -0.000000 -0.000001 0.000002 -0.000000 -0.000000 0.000002 -0.000000 -0.000000 0.000002 -0.000000 -0.000000 0.000002 -0.000000 -0.000000 0.000002 -0.000000 -0.000001 -0.000000 0.000000 -0.000000 0.000002 -0.000000 -0.000000 0.000002 -0.000000 -0.000001 -0.000000 0.000000 -0.000000 0.000000 0.000002 0.000000 0.000000 0.000002 0.000000 -0.000000 0.000002 0.000000 
-0.271663 77.241264 0.134130 -5.904505 -43.018171 -3.856991 0.000000 -0.000001 -0.000000 -27.485330 5.647078 13.882323 34.034874 -14.046763 -0.189454 -4.123809 0.711265 -8.193982 -0.000000 0.000001 0.000000 -0.000000 0.000001 0.000000 -0.000000 -0.000002 -0.000001 -4.640031 -13.617097 -15.650007 32.984268 -9.380814 -0.473981 -20.550801 -4.067244 17.156960 -0.000000 0.000000 0.000000 -0.000000 0.000000 0.000000 -0.000000 -0.000001 -0.000002 5.784608 4.561281 -1.266365 11.734904 8.869609 -3.113898 11.734905 8.869615 -3.113900 -4.165997 -0.932305 0.146253 -6.156643 20.430136 -0.327628 -0.000000 0.000000 0.000000 -0.000000 0.000000 0.000000 -0.000000 0.000000 0.000000 1.386619 -0.844138 -7.964505 -14.201889 2.560090 -62.985348 9.704251 -47.394450 5.847713 16.129189 0.756305 18.624097 8.640755 4.433218 -5.561609 -0.408217 0.793608 0.350490 0.000003 -0.000003 -0.000000 -1.041388 -6.906980 -4.872315 0.025678 0.590437 -17.734656 0.000000 -0.000001 -0.000004 2.035051 9.279552 -16.022048 -0.473450 -1.804212 -24.052877 0.000004 -0.000002 0.000003 2.690512 14.538181 -32.911909 -0.496769 -2.772652 -33.741298 0.000003 0.000003 0.000002 4.266867 18.108539 -37.030287 -0.686434 -5.727428 -41.165601 0.000002 -0.000001 -0.000000 -0.000003 0.000001 -0.000001 1.382081 9.291156 9.911529 1.351748 -24.130087 60.409854 -6.095261 41.947194 7.777804 6.458475 12.305880 11.387813 -8.420296 -4.538850 0.140665 7.828482 -18.508792 -2.441040 0.000001 0.000001 0.000000 -1.150902 -0.748960 3.855754 0.139053 -1.114654 16.972354 0.000001 0.000000 0.000000 -0.656030 -2.941667 12.234585 -0.660083 1.806541 30.514010 -0.000002 -0.000001 -0.000002 2.492900 -7.589657 21.296021 -0.992148 3.759906 37.371155 -0.000001 -0.000001 -0.000001 3.629667 -10.398254 23.891199 -1.459803 7.869064 41.061861 -0.000003 -0.000002 -0.000002 0.000000 -0.000000 -0.000002 -0.000001 -0.000001 0.000000 -0.000001 -0.000001 0.000000 -0.000001 -0.000001 0.000000 -0.000001 -0.000001 0.000000 -0.000001 -0.000001 -0.000001 0.000001 -0.000001 0.000000 -0.000001 -0.000001 0.000000 -0.000001 -0.000001 -0.000001 0.000001 -0.000001 0.000000 0.000000 0.000002 -0.000000 0.000000 0.000002 -0.000000 0.000000 -0.000001 -0.000000 
-0.279358 77.222504 0.138275 -5.666835 -42.944954 -3.653114 -0.000000 0.000000 -0.000000 -27.690060 5.570870 13.798998 34.092807 -13.996220 -0.176521 -4.134439 0.714989 -8.239039 0.000000 -0.000001 0.000000 0.000000 -0.000001 0.000000 0.000000 0.000003 -0.000001 -4.929187 -13.540253 -15.624993 33.259613 -9.829920 -0.533679 -20.589914 -4.085742 17.173262 -0.000000 0.000002 0.000000 -0.000000 0.000002 0.000000 0.000000 0.000001 0.000000 5.733499 4.475105 -1.289576 11.629824 8.696602 -3.147943 11.629810 8.696628 -3.147947 -4.189972 -0.576356 0.043483 -6.017092 20.421164 -0.295643 0.000000 -0.000000 -0.000000 0.000000 -0.000000 -0.000000 0.000000 -0.000000 -0.000000 1.380128 -0.996768 -8.053120 -14.173308 2.709395 -62.680892 9.587337 -47.246683 5.801154 16.163774 0.571982 18.440112 8.124630 4.043970 -5.653106 -0.446821 1.595457 -0.110211 0.000001 -0.000001 -0.000003 -1.182654 -6.814265 -6.019492 0.012804 0.363579 -19.154333 -0.000001 0.000000 -0.000002 2.116419 8.859751 -17.622211 -0.502101 -2.058229 -26.396221 -0.000001 0.000001 -0.000003 2.764120 14.158141 -34.618250 -0.416505 -2.836983 -35.640053 -0.000003 0.000003 0.000000 4.332985 17.683385 -39.232531 -0.662764 -5.659989 -43.158746 -0.000001 -0.000000 -0.000004 0.000002 -0.000000 -0.000002 1.353092 9.120821 10.030858 1.496275 -24.000624 60.284950 -5.499473 42.033114 7.478092 6.779209 12.246911 11.024411 -7.858782 -4.169030 0.765170 7.781550 -17.752249 -1.975137 0.000001 0.000001 0.000000 -1.206879 -0.257593 3.105318 0.136262 -1.127640 16.886241 0.000000 -0.000001 0.000003 -0.647820 -2.986973 11.671354 -0.658987 1.789975 30.358033 -0.000001 -0.000001 -0.000002 2.561830 -7.792024 20.772963 -0.998018 3.749315 37.227147 -0.000002 -0.000001 0.000004 3.778067 -10.770693 23.398792 -1.463335 7.861966 40.989666 -0.000001 -0.000003 -0.000004 -0.000002 -0.000001 0.000001 0.000001 -0.000002 -0.000000 0.000001 -0.000002 -0.000000 0.000001 -0.000002 -0.000000 0.000001 -0.000002 -0.000000 0.000001 -0.000002 0.000000 0.000001 0.000000 0.000001 0.000001 -0.000002 -0.000000 0.000001 -0.000002 0.000000 0.000001 0.000000 0.000001 -0.000001 -0.000000 -0.000000 -0.000001 -0.000000 -0.000000 -0.000000 0.000000 -0.000000 
-0.281798 77.206322 0.144741 -5.377737 -42.818121 -3.416876 0.000000 -0.000001 -0.000000 -27.943091 5.472651 13.695597 34.145338 -13.994807 -0.162934 -4.127623 0.716201 -8.264679 -0.000000 0.000002 -0.000000 -0.000000 0.000002 -0.000000 -0.000000 0.000001 -0.000000 -5.230371 -13.456309 -15.572456 33.522029 -10.364630 -0.603745 -20.613023 -4.107342 17.201468 0.000000 0.000000 -0.000000 0.000000 0.000000 -0.000000 -0.000000 -0.000001 -0.000001 5.681555 4.387457 -1.310505 11.522931 8.520894 -3.178271 11.522930 8.520902 -3.178271 -4.372948 -0.187672 -0.099258 -5.842715 20.412142 -0.274205 -0.000001 0.000000 0.000000 -0.000001 0.000000 0.000000 -0.000001 0.000000 0.000000 1.373128 -1.153253 -8.144307 -14.167252 2.845058 -62.375781 9.516532 -47.090374 5.789309 16.272644 0.371205 18.260292 7.615066 3.647144 -5.772874 -0.452402 2.437072 -0.597087 0.000000 0.000001 -0.000001 -1.323884 -6.703280 -7.245804 -0.006526 0.124175 -20.673161 0.000000 0.000000 -0.000000 2.188756 8.425108 -19.334479 -0.544330 -2.326886 -28.903093 -0.000003 0.000001 0.000002 2.823292 13.758663 -36.457084 -0.336099 -2.906767 -37.699919 0.000003 0.000005 -0.000003 4.364302 17.223775 -41.585351 -0.634313 -5.587146 -45.342819 0.000001 -0.000000 -0.000002 -0.000000 0.000003 -0.000002 1.325405 8.962436 10.136576 1.656981 -23.878761 60.164985 -4.869298 42.117716 7.144443 7.188150 12.148855 10.581822 -7.214458 -3.789421 1.485780 7.762100 -16.923522 -1.462391 0.000001 0.000001 -0.000001 -1.250351 0.258058 2.275953 0.133634 -1.154129 16.687219 0.000001 0.000003 0.000002 -0.639258 -3.039713 11.043614 -0.657400 1.764003 30.113392 -0.000000 0.000002 -0.000001 2.629498 -8.011473 20.195440 -1.007286 3.732824 37.001256 0.000000 -0.000001 0.000000 3.924456 -11.172130 22.846776 -1.468903 7.850876 40.876374 -0.000001 -0.000002 0.000003 -0.000000 -0.000001 0.000000 -0.000000 0.000002 -0.000001 -0.000000 0.000002 -0.000001 -0.000000 0.000002 -0.000001 -0.000000 0.000002 -0.000001 -0.000000 0.000002 -0.000001 -0.000000 0.000002 -0.000001 -0.000000 0.000002 -0.000001 -0.000000 0.000002 -0.000001 -0.000000 0.000002 -0.000001 0.000001 0.000001 -0.000000 0.000001 0.000001 -0.000000 0.000000 -0.000001 -0.000000 
